<svg width="31" height="28" viewBox="0 0 31 28" fill="none" xmlns="http://www.w3.org/2000/svg">
<path d="M15.4415 17.9317C17.5969 17.9317 19.3442 16.3012 19.3442 14.2899C19.3442 12.2787 17.5969 10.6482 15.4415 10.6482C13.2861 10.6482 11.5388 12.2787 11.5388 14.2899C11.5388 16.3012 13.2861 17.9317 15.4415 17.9317Z" stroke="#FFCD9E" stroke-width="3" stroke-linecap="round" stroke-linejoin="round"/>
<path d="M20.9512 4.00732H9.9318C6.88889 4.00732 4.42212 6.30915 4.42212 9.1486V19.4312C4.42212 22.2706 6.88889 24.5724 9.9318 24.5724H20.9512C23.9941 24.5724 26.4609 22.2706 26.4609 19.4312V9.1486C26.4609 6.30915 23.9941 4.00732 20.9512 4.00732Z" stroke="#FFCD9E" stroke-width="3" stroke-linecap="round" stroke-linejoin="round"/>
<path d="M21.4103 10.434C22.4246 10.434 23.2469 9.66671 23.2469 8.72023C23.2469 7.77375 22.4246 7.00647 21.4103 7.00647C20.396 7.00647 19.5737 7.77375 19.5737 8.72023C19.5737 9.66671 20.396 10.434 21.4103 10.434Z" fill="#FFCD9E"/>
</svg>
