<svg width="30" height="28" viewBox="0 0 30 28" fill="none" xmlns="http://www.w3.org/2000/svg">
<path d="M24.5158 4.43573H5.23188C4.72473 4.43573 4.3136 4.81937 4.3136 5.29261V23.2871C4.3136 23.7603 4.72473 24.144 5.23188 24.144H24.5158C25.0229 24.144 25.4341 23.7603 25.4341 23.2871V5.29261C25.4341 4.81937 25.0229 4.43573 24.5158 4.43573Z" stroke="#FFCD9E" stroke-width="3" stroke-linecap="round" stroke-linejoin="round"/>
<path d="M14.4147 13.4331V19.4313" stroke="#FFCD9E" stroke-width="3" stroke-linecap="round" stroke-linejoin="round"/>
<path d="M9.82324 13.4331V19.4313" stroke="#FFCD9E" stroke-width="3" stroke-linecap="round" stroke-linejoin="round"/>
<path d="M14.4147 16.4322C14.4147 15.6368 14.7533 14.874 15.356 14.3115C15.9588 13.7491 16.7763 13.4331 17.6287 13.4331C18.4811 13.4331 19.2985 13.7491 19.9013 14.3115C20.504 14.874 20.8426 15.6368 20.8426 16.4322V19.4313" stroke="#FFCD9E" stroke-width="3" stroke-linecap="round" stroke-linejoin="round"/>
<path d="M9.82326 10.8624C10.8376 10.8624 11.6598 10.0951 11.6598 9.14863C11.6598 8.20215 10.8376 7.43488 9.82326 7.43488C8.80895 7.43488 7.98669 8.20215 7.98669 9.14863C7.98669 10.0951 8.80895 10.8624 9.82326 10.8624Z" fill="#FFCD9E"/>
</svg>
